#!OML:ASF F:\VICON\USERDATA\INSTALL\rory3\rory3.ASF
:FULLY-SPECIFIED
:DEGREES
153
root 0.883054 18.2681 12.0847 -170.474 -8.39847 177.524
lowerback 6.45657 0.675356 -0.93542
upperback 2.11918 0.744175 1.78839
thorax -1.47213 0.312407 2.31093
lowerneck -12.8804 3.11088 -10.43
upperneck 40.1437 2.00096 2.78646
head 16.3913 -1.85978 3.00133
rclavicle 1.23246e-014 -1.19271e-014
rhumerus -29.0192 -6.01852 -79.6751
rradius 34.2494
rwrist 18.6407
rhand -19.721 3.36329
rfingers 7.12502
rthumb 6.60912 -26.5136
lclavicle 1.23246e-014 -1.19271e-014
lhumerus -33.0479 12.7074 80.6886
lradius 29.6086
lwrist -3.90835
lhand -17.0019 25.4413
lfingers 7.12502
lthumb 9.23355 55.2191
rfemur -5.31037 0.042056 24.5562
rtibia 5.38031
rfoot -8.55947 -7.04796
rtoes 17.7523
lfemur -65.6091 0.86366 -26.5189
ltibia 84.2953
lfoot -19.6216 -9.66578
ltoes -21.5138
154
root 0.878752 18.2603 12.0655 -170.396 -8.40959 177.63
lowerback 6.45726 0.695286 -0.806849
upperback 2.12432 0.777484 1.80956
thorax -1.46737 0.328298 2.25782
lowerneck -12.8973 3.08095 -10.3983
upperneck 40.1813 1.93947 2.78245
head 16.4222 -1.88392 2.98484
rclavicle 2.70347e-014 1.90833e-014
rhumerus -28.9685 -6.06117 -79.697
rradius 34.3275
rwrist 18.6239
rhand -19.7712 3.02536
rfingers 7.12502
rthumb 6.56072 -26.853
lclavicle 2.70347e-014 1.90833e-014
lhumerus -33.0952 12.6178 80.6744
lradius 29.6615
lwrist -3.89409
lhand -16.976 25.3799
lfingers 7.12502
lthumb 9.25848 55.1566
rfemur -5.56171 0.0675079 24.6593
rtibia 5.84378
rfoot -8.89541 -6.92386
rtoes 17.9696
lfemur -65.5382 0.741257 -26.3953
ltibia 83.5961
lfoot -18.8546 -9.35422
ltoes -21.3743
155
root 0.874633 18.2552 12.0443 -170.326 -8.5632 177.716
lowerback 6.47667 0.669121 -0.71793
upperback 2.09038 0.749431 1.86974
thorax -1.51144 0.314657 2.27178
lowerneck -12.7345 3.08899 -10.3391
upperneck 40.1718 1.90231 2.74727
head 16.3813 -1.89903 2.94884
rclavicle 4.77083e-015 8.74653e-015
rhumerus -29.0013 -6.00778 -79.6867
rradius 34.4184
rwrist 18.4715
rhand -20.2927 2.90925
rfingers 7.12502
rthumb 6.05722 -26.9842
lclavicle 4.77083e-015 8.74653e-015
lhumerus -33.2297 12.5142 80.7129
lradius 29.7535
lwrist -3.8815
lhand -16.8986 25.3297
lfingers 7.12502
lthumb 9.33317 55.1031
rfemur -5.66376 -0.0500017 24.7746
rtibia 6.05435
rfoot -9.08763 -6.86063
rtoes 17.9772
lfemur -65.4426 0.490886 -26.2819
ltibia 82.9003
lfoot -17.8192 -8.99091
ltoes -21.7737
156
root 0.870469 18.2536 12.02 -170.259 -8.71688 177.81
lowerback 6.43046 0.639842 -0.642005
upperback 2.10605 0.713055 1.96319
thorax -1.46819 0.294435 2.32868
lowerneck -12.601 3.09048 -10.2959
upperneck 40.083 1.91704 2.65341
head 16.303 -1.89109 2.89908
rclavicle 2.06736e-014 5.96354e-014
rhumerus -28.9347 -5.9279 -79.6398
rradius 34.4948
rwrist 18.3802
rhand -20.4205 2.94382
rfingers 7.12502
rthumb 5.93382 -26.9531
lclavicle 2.06736e-014 5.96354e-014
lhumerus -33.2844 12.4965 80.8187
lradius 29.8585
lwrist -3.93903
lhand -16.874 25.1276
lfingers 7.12502
lthumb 9.35696 54.9
rfemur -5.7297 -0.163894 24.9142
rtibia 6.18239
rfoot -9.20245 -6.86472
rtoes 17.6104
lfemur -65.3245 0.23395 -26.144
ltibia 82.2573
lfoot -16.8327 -8.94689
ltoes -21.5618
157
root 0.865626 18.249 11.9932 -170.219 -8.74054 177.873
lowerback 6.38904 0.643875 -0.595654
upperback 2.18426 0.714848 2.0114
thorax -1.36476 0.291402 2.35276
lowerneck -12.6791 3.05304 -10.2642
upperneck 39.9938 1.93428 2.56797
head 16.2777 -1.87421 2.86111
rclavicle 4.79071e-014 9.54166e-015
rhumerus -28.7636 -5.81859 -79.6589
rradius 34.5496
rwrist 18.3186
rhand -20.1167 3.26794
rfingers 7.12502
rthumb 6.22711 -26.6205
lclavicle 4.79071e-014 9.54166e-015
lhumerus -33.2094 12.5065 80.8943
lradius 29.9201
lwrist -3.94232
lhand -17.0476 24.915
lfingers 7.12502
lthumb 9.18938 54.6948
rfemur -5.70241 -0.160649 24.9795
rtibia 6.20012
rfoot -9.31534 -6.82745
rtoes 17.4954
lfemur -65.0603 0.0622412 -26.0045
ltibia 81.7245
lfoot -16.6601 -8.92636
ltoes -20.8069
